<svg id="baby" data-name="Слой 1" xmlns="http://www.w3.org/2000/svg" viewBox="0 0 232.03 231"><title>Монтажная область 1</title><path d="M4,132c3-11.54,9.76-19.44,21.57-22.19C23.7,57.69,65.43,15,116.76,15.15s92.58,42.9,90.69,94.66C219.25,112.56,226,120.46,229,132v8c-3.17,10.46-8.94,18.37-20.17,21.32-1.08.28-2.19,2.41-2.38,3.8-3.49,25.8-19.16,40.61-43.3,47.08-29.48,7.9-59.33,7.71-89,1.15-26.16-5.78-44-20.5-47.73-48.72-.16-1.23-1.27-3.07-2.28-3.33C13,158.39,7.19,150.46,4,140ZM118.64,24.52c3.72,2.85,6.52,4.67,8.93,6.92,9.35,8.71,15.08,19.13,13.51,32.31-1.26,10.67-7.39,18.06-17.23,22.07-9,3.68-17.72,2.69-25.24-3.79-6.91-6-9.47-13.8-7.2-22.54,2-7.92,7.65-12.67,15.89-14,3.15-.49,6.32-.54,7,3.54.57,3.64-1.83,4.68-5,5.35-9.08,1.9-12.32,10.31-7,18a13.46,13.46,0,0,0,12.87,6.12C127.21,77.49,135,66,131.4,53.93c-3.66-12.34-12.32-20.07-24.3-23.69-5.08-1.54-11.19-2.84-16-1.46-31.27,8.84-55.66,41.43-56,73.9q-.26,26.73,0,53.48c.22,24.07,12.13,40.19,35.24,46.68,28.78,8.09,58,8.14,87,1.45,29.08-6.72,40.68-22.61,40.73-52.51q0-22.49,0-45c-.07-25.07-9.49-46-28.33-62.5C155.46,31.85,138.76,25.36,118.64,24.52Zm-93,127.19v-31.5c-6.75,1-11.9,7.19-12.38,14.7S17.66,149.34,25.62,151.71Zm181.66-.06a16.35,16.35,0,0,0,12.42-17.6c-.92-7.53-6.43-13.6-12.42-13.58Z"/><path d="M116.6,197.92a34.84,34.84,0,0,1-34.51-30.51c-.83-7,.57-8.62,7.64-8.63q27.19,0,54.4,0c6,0,7.29,1.44,6.92,7.46C150,183.6,134.43,197.88,116.6,197.92Zm-8.78-29.5H92c2.26,12.32,14.37,21.49,26.23,20.29,12.13-1.24,22.75-11,22.38-20.45H117.25c-.23,3.88.37,8.53-4.9,8.4C107.49,176.54,108,172.14,107.82,168.42Z"/><path d="M69.8,130.84a8.71,8.71,0,1,1-8.91,8.61A8.43,8.43,0,0,1,69.8,130.84Z"/><path d="M164,130.86a8.44,8.44,0,0,1,8.16,9.33c-.3,5.07-4.24,8.41-9.46,8a8.7,8.7,0,0,1,1.3-17.36Z"/></svg>