<svg id="Слой_1" data-name="Слой 1" xmlns="http://www.w3.org/2000/svg" viewBox="0 0 225 225"><title>bumaga</title><path d="M194.39,7c4.7,2,6.09,5.58,6.08,10.54-.11,52.53,0,105.07-.1,157.61,0,24.49-17.25,41.42-41.84,41.45q-53.23.06-106.49,0c-15.29,0-23.58-6.25-27.47-21.2-3.08-11.84-1.77-23.21,5.32-33.42,4.15-6,9.93-9.56,17.51-9.56q55.86,0,111.7,0c3.41,0,6.7.77,7.78,4.1a14.14,14.14,0,0,1-.2,8,5.93,5.93,0,0,1-4.25,3.27c-6.9.66-8.47,5.6-9.72,11a25.43,25.43,0,0,0,1.86,17c1.85,3.93,4.62,5.55,9.12,4.7,12.18-2.28,20.8-11.36,20.85-23.89.2-50.64.05-101.29,0-151.93a5.75,5.75,0,0,0-.36-1.24H63.35V144H47.75c-.08-1.57-.24-3.07-.24-4.58,0-40.7,0-81.41-.09-122.11,0-4.5,1.18-7.92,5-10.34ZM140.92,200.78c-6.22-11.25-5.95-21.82-.13-32.7H53.48c-9.68,0-12.82,2.27-13.91,11.85-.52,4.55.29,9.39,1.3,13.92,1.07,4.77,4.31,7.08,9.68,7,20.18-.23,40.36-.09,60.54-.09Z"/></svg>