<svg id="Слой_1" data-name="Слой 1" xmlns="http://www.w3.org/2000/svg" viewBox="0 0 627 626"><title>kist</title><path d="M617,47.75c-10.3,14.77-20.06,30-31,44.23q-30.18,39.27-61.58,77.62-38.52,46.85-78.18,92.76c-20,23.14-40.66,45.8-61.61,68.12-17.5,18.66-35.94,36.44-53.82,54.75-15,15.35-32.78,26.37-52.22,35.06-5.39,2.41-10.52,5.42-15.68,8.11-4.5-7.08-8-14.28-13.07-20.2A354.12,354.12,0,0,0,225,382.59c-2.77-2.66-3.94-4.32-1.56-7.85C233,360.6,240.89,345.11,252,332.37c14.24-16.33,30.33-31.25,46.77-45.44,36.83-31.79,74-63.24,111.74-93.89,30.4-24.67,61.66-48.29,93-71.75,27-20.16,54.45-39.59,81.93-59,8-5.65,16.74-10.26,25.23-15.18,1.9-1.1,4.2-1.51,6.32-2.24Z"/><path d="M13.24,564.65c13.63-4.11,23.93-12.06,33.72-20.76,22.68-20.16,37-45.83,49-73.28,10.31-23.62,24.63-44.56,46.63-59.13,14.16-9.38,29.82-13.84,46.79-11.92a27.11,27.11,0,0,1,12.19,5.08c16.75,12.19,29,28.11,37.82,46.85,2.79,5.9,1.16,11.08-.22,16.37C233.37,490,225.33,511.17,212,530c-20.29,28.68-47.91,45.85-82.74,50.88-39.31,5.67-77-1.74-113.84-15.05A24.24,24.24,0,0,1,13.24,564.65Z"/></svg>