<svg id="kniga" data-name="Слой 1" xmlns="http://www.w3.org/2000/svg" viewBox="0 0 1200 1200"><title>kniga</title><path d="M48.79,599.67l-2.73,1.12c.47-8.06.58-15.76,1.41-23.38a221.33,221.33,0,0,1,29.41-89.56c7.89-13.39,18.67-24.35,28.91-35.77q45.78-51.07,91.74-102,62.55-69.52,125.11-139,65.16-72.46,130.29-145c13.87-15.43,27.63-31,41.65-46.24,12-13.07,27.1-17.6,44.2-13.77,65.94,14.76,131.8,29.86,197.7,44.8q116.37,26.39,232.73,52.71,67.13,15.22,134.22,30.54c31.51,7.2,43.59,43.53,22.75,68.13q-78.5,92.64-157,185.32Q889.43,481.77,809.59,576,761,633.32,712.54,690.72c-7.14,8.46-15.36,15-26.57,16.82a42.62,42.62,0,0,1-19.61-1.47q-134.85-41-269.73-81.93-101.24-30.72-202.5-61.36c-8.65-2.61-17.06,0-25.28,2.52-19.21,6-28.75,19.75-30.7,39.17-2.05,20.5-1.48,40.93,3.64,61,2.8,11,7.68,20.83,16.66,28.21.75.62,1.58,1.55,2.41,1.59,11.56.5,22.07,5.14,32.87,8.44q147.48,45.1,294.88,90.51l204.07,62.68c.34.1.7.16,1.31.29q12.42-15.35,24.9-30.8,70.9-87.7,141.8-175.42,74.64-92.38,149.24-184.82,14.36-17.78,28.75-35.53a5,5,0,0,0,1-5c-2.63-10.9-2.82-22-2.11-33.15,1.27-19.68,5.6-38.74,11.79-57.4,7.81-23.58,32.3-36.32,55.6-29A45.1,45.1,0,0,1,1134.89,362c-3.93,13.2-7.62,26.38-7,40.35a24.06,24.06,0,0,0,3.25,11.67c7.85,13.17,7.94,27.26,2.73,41.13-11.08,29.51-18.9,59.73-20.74,91.23-2,33.93,1.57,67.11,16.35,98.3,3.16,6.67,6.64,13.13,7.46,20.62,1.45,13.38-2.27,25.13-10.79,35.49q-55.93,68-111.79,136.1-58.95,71.82-117.86,143.7-54.19,66-108.43,132.06c-15,18.25-29.64,36.77-45.06,54.63-13,15.1-29.88,19.43-48.86,13.38q-88.71-28.29-177.28-56.94-177.43-57-354.91-113.92c-18.59-5.93-36.29-13.06-51.93-25-22.59-17.21-38.29-39.49-48.63-65.66A213.13,213.13,0,0,1,48.74,807.07c3.72-24.39,13-46.74,26.63-67.27,1.59-2.39,1.77-4,.09-6.48C60.59,711,52.17,686.16,48.94,659.72c-1.73-14.08-2-28.36-2.29-42.57C46.52,611.49,48,605.8,48.79,599.67Zm974.67-7.88c-1.58,1.9-2.76,3.29-3.9,4.7q-40.26,49.85-80.5,99.7L843.49,814.54q-50,61.94-100.09,123.85c-12.59,15.51-30.93,20.79-50.16,14.83Q612.17,928.11,531.11,903L250,816q-46.24-14.31-92.48-28.69c-2.61-.81-4.22-.59-5.46,1.9-3.68,7.47-8.59,14.56-10.93,22.41-7.6,25.47-5,50.84,4.75,75.12,7,17.35,18.5,29.72,38.13,35.7,73.9,22.52,147.35,46.52,221,70q142.83,45.57,285.62,91.24c2.62.83,3.94.24,5.56-1.74q43-52.67,86.2-105.22,64-78.12,128-156.24,64.95-79.28,129.84-158.59a5.72,5.72,0,0,0,.66-4.58c-1.2-4-2.92-7.94-4.34-11.93A272.48,272.48,0,0,1,1023.46,591.79Zm-261-282.93c19.76-.05,30.71-5.27,40.57-17.48,1.57-1.94,3.15-3.87,4.73-5.81,7.57-9.3,15.24-18.52,22.67-27.93,6.43-8.16,4.88-16.52-4.08-21.75a38.25,38.25,0,0,0-10-3.89c-19.83-4.95-39.71-9.7-59.57-14.52q-109.2-26.49-218.41-53c-10.36-2.5-20.58-6.23-31.63-4.09-9.21,1.78-18.43,3.92-24.73,11.25-11.57,13.43-22.65,27.29-33.65,41.2-4.59,5.8-3.7,13.12,2.13,17.67a33.31,33.31,0,0,0,11.2,5.64c10.19,2.87,20.55,5.14,30.85,7.64q123,29.88,246,59.74C747.64,305.8,756.91,307.65,762.42,308.86Z"/></svg>