<svg id="logo"  data-name="Слой 1" xmlns="http://www.w3.org/2000/svg" viewBox="0 0 226 226"><title>logo</title><path d="M100.89,8.93c9.18,1.87,18.51,3.22,27.52,5.73,14.88,4.16,28,11.93,40.7,21.59l-15,13.46c-4.66-3-9.05-6.19-13.71-8.87-21.86-12.57-45-16.63-69.56-9.71-24.76,7-38,24-41,48.88-3.13,25.91,1.74,50.22,18,71.34C60.75,168,78.12,178.47,97.52,185.78c17.93,6.75,36.31,11.33,55.67,9.77a73.55,73.55,0,0,0,14-2.94c4.71-1.34,7.4-5,6.94-9.75-.48-5.16-1.89-10.25-3.18-15.31-2.31-9.1-5.43-18-7.12-27.24-2.08-11.38,2.26-18.94,12.51-24.36,2.18-1.15,4.44-2.15,6.62-3.31,14.57-7.82,13.7-16.39,6.77-28.72a42.32,42.32,0,0,0-3.55-4.64l13.75-14.91c7.37,9.45,15.53,18,18,30v8.36c-2.72,9.55-8.94,16-17.9,19.91-1.41.63-2.74,1.43-4.1,2.17-12.21,6.56-15.45,13.72-12.09,27.11a97.45,97.45,0,0,0,3.1,9.69c2.91,8,6.21,15.81,8.85,23.86,4.31,13.13.74,26.7-16.75,29.8l-15,2.64H146.4a32.39,32.39,0,0,0-4-.8c-18.08-1.48-35.82-4.67-52.77-11.25C52.44,191.44,25.77,166.56,14,127.61c-2.52-8.35-3.44-17.18-5.09-25.79V85.1c.58-3.64,1.21-7.27,1.74-10.92,4.62-31.56,24.21-53.62,55-61.54C72,11,78.62,10.15,85.1,8.93Z"/><path d="M78.7,148.21a77.35,77.35,0,0,1,19.71-34.86c9.9-10.12,21.06-19,31.9-28.18,22.2-18.76,44.56-37.34,66.83-56,3.61-3,6.92-3.11,9.62-.1s2.62,6.48-.45,9.67q-40.14,41.55-80.24,83.14C113.13,135.33,98.27,145.15,78.7,148.21Z"/><path d="M139.24,181.86a17.51,17.51,0,0,1,.9-35,17.51,17.51,0,1,1-.9,35Z"/><path d="M66.56,103.8a13.51,13.51,0,1,1-27-.09,13.51,13.51,0,0,1,27,.09Z"/><path d="M104.75,35.84a12.22,12.22,0,0,1,12.31,12.33,12.34,12.34,0,1,1-24.67-.08A12.19,12.19,0,0,1,104.75,35.84Z"/><path d="M68.24,53.34A12.32,12.32,0,1,1,68.1,78a12.32,12.32,0,0,1,.14-24.64Z"/></svg>