<svg id="lupa" data-name="Слой 1" xmlns="http://www.w3.org/2000/svg" viewBox="0 0 71.71 73.97"><title>lupa</title><path d="M45.14,35.55a15.41,15.41,0,0,0-4.69-11.3,15.42,15.42,0,0,0-11.31-4.7,15.41,15.41,0,0,0-11.3,4.7,15.41,15.41,0,0,0-4.7,11.3,15.42,15.42,0,0,0,4.7,11.31,15.41,15.41,0,0,0,11.3,4.69,15.41,15.41,0,0,0,11.31-4.69A15.41,15.41,0,0,0,45.14,35.55ZM63.43,65.27a4.65,4.65,0,0,1-4.57,4.57,4.24,4.24,0,0,1-3.22-1.36L43.39,56.27a25.1,25.1,0,0,1-24,2.45A24.64,24.64,0,0,1,6,45.32,25.07,25.07,0,0,1,6,25.79a24.64,24.64,0,0,1,13.4-13.4,25.07,25.07,0,0,1,19.53,0A24.58,24.58,0,0,1,52.3,25.79a25.05,25.05,0,0,1-2.44,24L62.11,62.05A4.41,4.41,0,0,1,63.43,65.27Z"/></svg>