<svg id="Слой_1" data-name="Слой 1" xmlns="http://www.w3.org/2000/svg" viewBox="0 0 225 225"><title>molbert</title><path d="M193,153h17.48v8.5H166.72c1.26,7.08,2.35,13.52,3.56,19.94,1.42,7.51,2.87,15,4.44,22.49.68,3.25.08,6-3.38,6.58s-4.79-2-5.37-5.15c-2.68-14.36-5.43-28.71-8.22-43.38H117v18.6c0,3.67,0,7.33,0,11,0,3-.76,5.43-4.25,5.55-3.89.14-4.58-2.61-4.59-5.71,0-9.64,0-19.29,0-29.79h-8c-9.5,0-19,.06-28.49,0-2.86,0-4.34.45-4.92,3.86-2.27,13.26-5.08,26.43-7.53,39.65-.62,3.32-1.73,6.17-5.56,5.32s-3.63-3.86-3-7.19c2.47-12,4.69-24.13,7-36.21.3-1.59.37-3.22.6-5.36H14.87v-8.76H32.28V52.63c0-11.46,0-11.46,11.21-11.46q16.5,0,33,0c1.63,0,3.26-.14,5.09-.22,1.45-7.4,3-14.52,4.21-21.69.56-3.16,2.07-5,5.32-4.46,3.48.59,3.74,3.16,3.18,6.12C93,27.42,91.9,34,90.66,40.86h43.93c-1.07-5.79-2.11-11.32-3.12-16.86-.27-1.47-1-3.12-.57-4.38.58-1.77,2.09-4.6,3.11-4.56,1.75.08,4.53,1.7,5,3.21a146,146,0,0,1,3.87,19c.46,3.36,1.9,4,4.87,3.93,12.66-.12,25.32-.07,38,0,6,0,7.31,1.37,7.31,7.36q0,49.23,0,98.45ZM41.48,50.15V152.61H183.6V50.15Z"/><path d="M109.84,98.57c5.42-6.62,10.44-12.8,15.51-18.93,3.24-3.92,5.84-4.07,8.85-.12q19.68,25.82,39.09,51.83c1,1.36,1.66,4,1,5.3s-3.12,2.4-4.81,2.4q-56.73.19-113.47,0a6.88,6.88,0,0,1-5.16-2.59c-.67-1.11.18-3.87,1.24-5.19Q71.18,107.5,90.58,84c2.88-3.49,5.58-3.31,8.52.42C102.59,88.87,105.94,93.43,109.84,98.57Zm19.92-10.49L95.4,130.21h66.16ZM94.57,93l-30.79,37.7c6.89,0,12.49.07,18.08-.06a4.41,4.41,0,0,0,2.94-1.42c6.48-7.78,12.84-15.65,19.29-23.56C101,101.44,98,97.46,94.57,93Z"/><path d="M65.71,63.76a6.22,6.22,0,0,1,6.46,6.58c-.1,4-2.58,6-6.23,6.47-3.31.42-6.81-3.07-6.9-6.48A6.54,6.54,0,0,1,65.71,63.76Z"/></svg>