<svg id="Слой_1" data-name="Слой 1" xmlns="http://www.w3.org/2000/svg" viewBox="0 0 917.02 916"><title>Монтажная область 1</title><path d="M9,214c4.4,1.87,8.92,3.52,13.19,5.66Q152,284.76,281.66,350q70.54,35.46,141,71.06c1.61.81,3.27,1.53,4.9,2.29l1.17-.89L207.11,10.85l1-1c1.86,1.19,3.77,2.33,5.59,3.58a245.81,245.81,0,0,1,66,66.82c31.67,47.77,63.2,95.64,94,144,50.8,79.85,101,160.08,151.3,240.25,4.87,7.76,11,13.63,19.2,17.55,9.18,4.37,18.24,9,27.22,13.72,2.88,1.53,4.25.87,6.05-1.63,5.44-7.56,10.82-15.23,16.92-22.25,17.18-19.8,40.29-27.84,65.33-30.92,52.67-6.47,102.38,5,150.1,26.59,24.88,11.28,47.9,25.62,67.49,44.92,15.63,15.39,27.56,32.94,31.11,55.18A5.78,5.78,0,0,0,909,569v16c-.85,3.18-1.69,6.35-2.56,9.53-5.09,18.61-17.45,32.2-30.84,45.22-17.91,17.41-39.79,22.37-63.81,21.89-21.73-.44-40.74-8.34-59.15-19.16-32.16-18.89-64.62-37.31-97.13-55.61-22.62-12.74-47.12-20-72.78-23.55a71.65,71.65,0,0,0-7.48-.41c-1,0-1.93.17-4.4.4,3,13.67,5,27.17,8.91,40.11,7.42,24.6,20.83,46.44,34.08,68.21,15.16,24.9,30.3,49.84,46.39,74.14,17.52,26.46,20,55.33,15.3,85.36-1.22,7.75-5.45,15.4-9.67,22.25a104.73,104.73,0,0,1-39.54,37.37c-27.43,14.93-53.42,9.94-77.94-7.2-24.26-16.95-42.15-39.62-56.59-65.1-26.66-47.08-40.54-97.61-39.86-151.87.26-21.1,4-41.41,15-59.89,7.47-12.56,18-22.15,29.36-31,11-8.58,10.85-8.72,4.09-21-14.87-27.12-14.69-27.43-41.26-43.24C385.25,467.44,311,424.07,237.28,379.91q-78.46-47-156-95.51A238.58,238.58,0,0,1,9.81,215.52c-.17-.24-.53-.35-.8-.52ZM488.29,689.63c1.44,15.55,2,28,3.84,40.38,5,34.1,16.09,65.94,37.25,93.63,13.94,18.24,31,32.42,53.19,39.77,7.7,2.55,15.64,4.09,23.55,1.74,18.68-5.55,30.64-18.46,36.59-36.55,6.23-18.91,4.67-37.44-5.48-54.94-16.46-28.36-32.56-56.94-49.39-85.08-9.48-15.84-19.86-31.15-30.32-46.37a46.64,46.64,0,0,0-25.87-18.64c-12.12-3.56-21.84-.62-28.84,9.85-3.74,5.59-7.39,11.85-8.77,18.3C491.17,665.14,489.84,678.89,488.29,689.63Zm217-213.52c-10.46.68-21,.8-31.37,2.17-13.74,1.82-26.57,6.44-36.62,16.63-6.91,7-9.12,15.29-5.66,24.77,4.73,12.93,12.37,23.52,24.57,30.41,40.16,22.67,80.49,45,120.42,68.13,15.59,9,31.78,11.74,49.39,10.19,14.89-1.31,27.12-7.58,37.52-17.79a39,39,0,0,0,11.79-25.26c1.17-13.75-3.43-25.91-10.37-37.37-12.35-20.39-30-35.1-50.82-46.1C780.07,483.93,743.58,476.3,705.24,476.11Z"/></svg>