<svg id="pero" data-name="Слой 1" xmlns="http://www.w3.org/2000/svg" viewBox="0 0 632 639"><title>pero</title><path d="M466,634c-10.08-1-20.2-1.73-30.23-3.08-18.13-2.43-36.34-4.6-54.24-8.21-7-1.41-13.32-6.33-19.81-9.89-1.22-.67-1.82-2.47-3-4.19l6-2.14c-5.58-12.62-11.08-25.09-16.6-37.55-13.21-29.81-26.48-59.61-39.55-89.48a11,11,0,0,1-.17-6.61c2.1-8.49-1.81-18.9-9.23-23.7-7.59-4.91-15.58-1.11-16.14,8s3.38,16,10.77,21.21a15.94,15.94,0,0,1,5.31,5.92Q328.23,548.65,357,613.15c.39.88.56,1.85,0,3.93-2.06-1.19-4.59-2-6.12-3.65-7.27-8-13.93-16.59-21.44-24.34-20.54-21.21-43.34-39.38-71.07-50.52-4.16-1.67-8.49-2.93-12.68-4.54a15.83,15.83,0,0,1-9.93-10.36q-26.33-78.07-53-156c-3.24-9.41-.28-17.36,5.86-23.33,20.84-20.31,45.88-28.75,74.88-23.26,6.11,1.16,10.47,5,13.48,10.82,17.87,34.58,35.6,69.26,54.19,103.46,8.57,15.74,18.57,30.76,28.73,45.55,4.83,7,6.15,14,5.32,22.09-1.22,11.93-3.49,23.95-2.91,35.8,1,19.41,3.87,38.71,6,58.06.05.5.2,1,.28,1.47,1.66,9.78,1.66,9.76,11.91,10.71,26.54,2.48,53,5.5,79.62,7.34,33.86,2.34,67.62,1.36,100.75-7.26a13.4,13.4,0,0,0,5.91-3.05c-5-2.4-9.67-5.58-14.88-7.06-18.7-5.32-37.52-10.24-56.39-15-16-4-32-8-46.63-15.91-2.48-1.34-4.86-2.86-7.23-4.39-7-4.47-6.48-13.67.68-17.93,17.6-10.46,36.76-17,56.09-23.35,18.35-6,36.75-11.91,53.63-21.59,10.47-6,20.12-12.95,27.16-23,6.19-8.84,7.11-19.1.28-27.32A119.22,119.22,0,0,0,558.34,431c-12.7-9.36-26.34-17.42-39.12-26.67a59.49,59.49,0,0,1-13.87-14.14c-8.69-12.6-7.34-25.66,3.85-36,14.4-13.34,29.46-25.94,44.13-39,17.11-15.23,33.51-31,41-53.65,5-15.21,3.68-30.18-.63-45.19a13.5,13.5,0,0,1-.5-4.38c6.29,7.63,9.26,16.75,11.52,26,5.88,24.1,4.27,47.29-9.47,68.71-8.09,12.62-18.72,22.72-30.64,31.78-10.54,8-21.43,16.05-30.15,25.86-10.53,11.84-8.32,23.72,4.88,32.66,9.45,6.4,19.77,11.59,30,16.81,14.22,7.29,29,13.65,39.17,26.82,9.7,12.51,9.24,26.7-.89,38.85-9.32,11.16-20.67,19.71-33,27.17-24.4,14.84-50.58,26-76.9,36.8-7.69,3.17-15.41,6.28-23.09,9.46-1.63.68-3.18,1.57-5.58,2.77,13.23,6.36,26.4,9.44,39.66,12.31,18.85,4.08,37.92,7.27,55.94,14.71a99.44,99.44,0,0,1,29.13,18.86,18,18,0,0,1,3,3.93c4.1,6.65,1.55,13.3-6.06,14.89-12.87,2.7-25.77,5.42-38.76,7.37-14.82,2.23-29.75,3.63-44.63,5.42a30.53,30.53,0,0,0-3.37.8Z"/><path d="M146,8c4.86,2,10,3.57,14.52,6.16,8.85,5.06,12.46,14.09,15.53,23.1q20.52,60.22,40.71,120.55c4.51,13.39,8.53,27,13.53,40.18,2.74,7.25,7,13.92,10.66,20.84,1.21,2.31,2.5,4.57,4.33,7.89-52.08-2-94.09,16.19-125.06,58.31a12.4,12.4,0,0,1-1.32-2C108,252.18,90.61,224.76,74.06,196.89Q44.9,147.78,15.64,98.71c-4-6.61-3.78-13.15-1.48-20.12C19,64,29,53.51,41.37,45.19A255.74,255.74,0,0,1,107.3,13.63C114.42,11.39,121.76,9.86,129,8Z"/><path d="M276.86,324.8c-7.76-10.2-18.41-12.88-30-11.9a103.44,103.44,0,0,0-55.13,21.33C179,344.06,176.47,352.32,179,370.12c-9.39-1.42-17.83-3.9-23.67-12.09a17,17,0,0,0-6.56-5.79,20.82,20.82,0,0,1-12.34-13.62c-4-13.39-7.46-26.95-10.85-40.51-.38-1.52.76-3.82,1.85-5.26,28.25-37.42,66.13-55.36,112.76-56.07,7.57-.12,12.35,1.65,16.56,8.46,7,11.29,15.57,21.56,23,32.57,1.93,2.84,2.36,6.77,3.12,10.28s.56,7.16,1.6,10.5C287.54,308.54,284.9,318.5,276.86,324.8Z"/></svg>