<svg id="twitter" data-name="Слой 1" xmlns="http://www.w3.org/2000/svg" viewBox="0 0 238 222"><title>twitter</title><path d="M71,160.69c-24.18-4.79-40.64-17.6-42.84-33.23H46.54l.66-1.14C24.49,118.93,12,103.74,10.37,80.06l19.72,5.49.72-1.3C20.12,76,13.24,65.46,11.51,52.1c-1.36-10.45.07-20.53,5.8-30.28C43,51.88,75.39,68.58,113.92,71.27c.78-8.46.3-16.72,2.44-24.23,9.63-33.83,51.3-45.38,77.33-21.75,2.16,2,4,2.77,6.77,1.77,8.43-3.08,16.89-6.09,25-9-1.45,7.08-4.55,11.26-17.78,24.82l23.76-6.3.91.84c-6,6.14-11.72,12.67-18.22,18.26-3.49,3-4.68,5.78-4.84,10.27-1.84,50.34-22.39,91-66.27,116.69-45,26.31-91.49,24.89-137.24,0a14.07,14.07,0,0,1-1.73-1.1c-.25-.19-.38-.54.16.28,11.16-1.6,23-2.69,34.5-5.1C50.46,174.25,60.82,168.4,71,160.69Z"/></svg>