<?xml version="1.0" encoding="utf-8"?>
<!-- Generator: Adobe Illustrator 23.0.2, SVG Export Plug-In . SVG Version: 6.00 Build 0)  -->
<svg version="1.1" id="Слой_1" xmlns="http://www.w3.org/2000/svg" xmlns:xlink="http://www.w3.org/1999/xlink" x="0px" y="0px"
	 viewBox="0 0 64 64" style="enable-background:new 0 0 64 64;" xml:space="preserve">
<path d="M50.3,20.6c-1.3,0.6-2.8,1-4.3,1.2c1.6-1,2.7-2.3,3.3-4.2c-1.5,0.9-3.1,1.5-4.8,1.8c-1.5-1.6-3.3-2.4-5.5-2.4
	c-2.1,0-3.8,0.7-5.3,2.2c-1.5,1.5-2.2,3.2-2.2,5.3c0,0.7,0.1,1.3,0.2,1.7c-3.1-0.2-6-0.9-8.6-2.3c-2.7-1.4-5-3.2-6.9-5.5
	c-0.7,1.2-1,2.5-1,3.8c0,2.7,1.1,4.8,3.3,6.3c-1.1,0-2.3-0.3-3.6-0.9v0.1c0,1.8,0.6,3.4,1.8,4.8c1.2,1.4,2.7,2.3,4.4,2.6
	c-0.7,0.2-1.3,0.3-1.8,0.3c-0.3,0-0.8,0-1.4-0.1c0.5,1.5,1.4,2.7,2.7,3.7c1.3,1,2.7,1.5,4.3,1.5c-2.8,2.1-5.9,3.2-9.3,3.2
	c-0.6,0-1.2,0-1.8-0.1c3.5,2.2,7.4,3.4,11.5,3.4c2.7,0,5.2-0.4,7.5-1.3c2.3-0.8,4.3-2,6-3.4c1.7-1.4,3.1-3,4.3-4.9
	c1.2-1.8,2.1-3.8,2.7-5.8c0.6-2,0.9-4,0.9-6c0-0.4,0-0.8,0-1C48,23.5,49.3,22.2,50.3,20.6L50.3,20.6z"/>
</svg>
